#!OML:ASF Y:\EmotionMaleHayes\Project 1\Capture day 1\Session 1\Male1.ASF
:FULLY-SPECIFIED
:DEGREES
847
root 7.89448 17.2506 -2.60219 3.87743 20.0314 1.30514
lowerback 9.44376 1.28891 -15.4378
upperback 7.87045 0.945567 -6.36675
thorax 3.07844 0.0395456 1.77214
lowerneck -26.0882 5.38777 3.40171
upperneck 34.2284 5.90594 1.99566
head 16.8428 3.18144 1.59426
rclavicle 3.02153e-014 1.59028e-014
rhumerus -76.0249 28.4562 -92.0792
rradius 72.146
rwrist -10.7999
rhand -4.48094 -33.0295
rfingers 7.12502
rthumb 21.2921 -61.8799
lclavicle 3.02153e-014 1.59028e-014
lhumerus 11.2208 -31.8096 45.1439
lradius 72.6335
lwrist -1.96088
lhand -27.9088 -28.6295
lfingers 7.12502
lthumb -1.29785 1.34633
rfemur -11.114 -11.894 14.7839
rtibia 21.045
rfoot -17.3872 -9.70089
rtoes 10.9724
lfemur 13.0068 -0.422945 -20.2294
ltibia 13.3403
lfoot -15.8556 6.52178
ltoes -23.5312
848
root 7.92811 17.2489 -2.48231 3.74383 19.9531 1.59539
lowerback 9.47122 1.32351 -15.6142
upperback 7.76294 0.951889 -6.21678
thorax 2.94413 0.0413215 2.02606
lowerneck -25.8743 5.53723 3.36674
upperneck 34.3035 6.20894 1.88203
head 16.8343 3.28328 1.61094
rclavicle -2.06736e-014 -2.54444e-014
rhumerus -76.1362 28.8029 -92.0139
rradius 72.8136
rwrist -10.6925
rhand -4.78629 -32.7028
rfingers 7.12502
rthumb 20.9987 -61.586
lclavicle -2.06736e-014 -2.54444e-014
lhumerus 9.88038 -32.2054 45.6266
lradius 73.3446
lwrist -1.59176
lhand -28.827 -29.0742
lfingers 7.12502
lthumb -2.18461 0.894311
rfemur -10.3353 -11.4166 14.38
rtibia 21.0302
rfoot -17.9317 -9.50672
rtoes 11.009
lfemur 13.2064 -0.0395077 -20.2781
ltibia 14.2329
lfoot -15.5053 6.04349
ltoes -23.9526
849
root 7.96855 17.2506 -2.36063 3.53398 19.8928 1.54295
lowerback 9.43321 1.34434 -15.3396
upperback 7.66758 0.982581 -5.99475
thorax 2.84402 0.068191 2.11643
lowerneck -25.7247 5.6286 3.23471
upperneck 34.4792 6.47195 1.76646
head 16.8876 3.35427 1.64026
rclavicle 9.54166e-015 -6.36111e-014
rhumerus -76.0481 29.0163 -91.7609
rradius 73.4274
rwrist -10.6515
rhand -5.28002 -32.4383
rfingers 7.12502
rthumb 20.5243 -61.3734
lclavicle 9.54166e-015 -6.36111e-014
lhumerus 8.41313 -32.7088 46.2634
lradius 74.1645
lwrist -1.04818
lhand -29.4153 -29.4353
lfingers 7.12502
lthumb -2.75281 0.526649
rfemur -9.46034 -11.0729 14.36
rtibia 20.8213
rfoot -18.3465 -9.39613
rtoes 10.2821
lfemur 13.38 0.271146 -20.0182
ltibia 15.1424
lfoot -15.0245 5.73419
ltoes -25.2001
850
root 8.01702 17.2549 -2.23919 3.24542 19.9223 1.39139
lowerback 9.45588 1.35544 -14.9007
upperback 7.60002 1.00358 -5.75989
thorax 2.73951 0.0958116 2.13179
lowerneck -25.7059 5.67873 3.21234
upperneck 34.8229 6.64514 1.59855
head 17.0683 3.39183 1.62062
rclavicle 3.73715e-014 -3.18055e-014
rhumerus -75.7852 29.1032 -91.4436
rradius 73.9728
rwrist -10.567
rhand -5.75528 -32.2781
rfingers 7.12502
rthumb 20.0676 -61.2618
lclavicle 3.73715e-014 -3.18055e-014
lhumerus 6.94915 -33.3012 46.9512
lradius 74.9581
lwrist -0.446509
lhand -29.7614 -29.8133
lfingers 7.12502
lthumb -3.08706 0.144118
rfemur -8.41196 -10.9966 14.3419
rtibia 20.4427
rfoot -18.6456 -9.39748
rtoes 9.3117
lfemur 13.2267 0.95868 -19.3762
ltibia 16.6958
lfoot -14.4547 4.81827
ltoes -25.4674
851
root 8.06706 17.2581 -2.11849 3.04129 19.8898 1.49282
lowerback 9.50669 1.39194 -14.7439
upperback 7.48571 1.02873 -5.55518
thorax 2.57452 0.120476 2.26417
lowerneck -25.5285 5.76664 3.32416
upperneck 35.0874 6.89001 1.25689
head 17.1894 3.45184 1.50792
rclavicle -5.1684e-014 2.70347e-014
rhumerus -75.4969 29.1629 -91.1466
rradius 74.4029
rwrist -10.323
rhand -5.97575 -31.9965
rfingers 7.12502
rthumb 19.8557 -61.0022
lclavicle -5.1684e-014 2.70347e-014
lhumerus 5.1229 -33.8178 48.0328
lradius 75.7597
lwrist -0.0312028
lhand -30.0004 -30.1079
lfingers 7.12502
lthumb -3.31783 -0.153987
rfemur -7.34529 -11.0626 13.9539
rtibia 19.9814
rfoot -18.8759 -9.24689
rtoes 8.37599
lfemur 13.0329 1.07727 -19.3668
ltibia 18.354
lfoot -14.0042 4.39282
ltoes -24.427
